<svg width="22.271240" height="23.666748" viewBox="0 0 22.2712 23.6667" fill="none" xmlns="http://www.w3.org/2000/svg" xmlns:xlink="http://www.w3.org/1999/xlink">
	<desc>
			Created with Pixso.
	</desc>
	<defs/>
	<path id="Vector" d="M9.97 16.62C9.87 18.64 9.87 20.67 9.97 22.69C10.01 23.38 9.97 23.47 9.26 23.58C8.88 23.63 8.49 23.66 8.1 23.66C6.4 23.66 4.7 23.66 3 23.66C2.71 23.66 2.42 23.66 2.13 23.64C1.58 23.64 1.43 23.51 1.29 22.97C1.12 22.28 1.03 21.57 1.02 20.87C0.8 17.43 0.59 13.99 0.4 10.55C0.22 7.34 0 4.13 0 0.91C0 0.39 0.05 0.31 0.58 0.22C1.83 0.05 3.09 -0.02 4.34 0.01C5.9 -0.02 7.45 0.01 9 0.01C9.51 0.01 9.55 0.04 9.53 0.57C9.46 2.62 9.53 4.67 9.63 6.71C9.67 7.82 9.75 8.92 9.91 10.03C10.31 9.02 10.77 7.99 11.19 6.98C12.07 4.82 12.89 2.64 13.57 0.41C13.57 0.35 13.59 0.29 13.62 0.23C13.65 0.18 13.69 0.13 13.74 0.09C13.79 0.05 13.85 0.03 13.91 0.01C13.97 -0.01 14.03 -0.01 14.1 0C16.39 0.04 18.67 0.24 20.94 0.6C21.79 0.76 21.83 0.84 21.56 1.67C20.44 5.09 18.95 8.34 16.73 11.2C16.55 11.37 16.43 11.61 16.41 11.86C16.39 12.11 16.46 12.36 16.6 12.56C19.11 15.84 21.09 18.23 22.19 21.8C22.35 22.31 22.28 22.47 21.79 22.66C20.91 22.96 20 23.13 19.08 23.18C17.6 23.33 16.12 23.38 14.63 23.4C14.5 23.42 14.37 23.39 14.27 23.31C14.16 23.23 14.09 23.12 14.07 22.99C13.39 21.07 12.35 19.24 10.27 16.9C10.22 16.78 10.03 16.73 9.97 16.62Z" fill="#F77833" fill-opacity="1.000000" fill-rule="nonzero"/>
</svg>
